<?xml version="1.0" encoding="utf-8"?>
<!-- Generator: Adobe Illustrator 24.2.3, SVG Export Plug-In . SVG Version: 6.00 Build 0)  -->
<svg version="1.1" id="Layer_1" xmlns="http://www.w3.org/2000/svg" 
	 x="0px" y="0px" viewBox="0 0 512 512"
	 style="enable-background:new 0 0 512 512;" xml:space="preserve">
<path style="fill:#4F46E5;" d="M410.667,85.333c-5.891,0-10.667,4.776-10.667,10.667v320c0,5.891,4.776,10.667,10.667,10.667
	s10.667-4.776,10.667-10.667v-320C421.333,90.109,416.558,85.333,410.667,85.333z"/>
<path style="fill:#8B5CF6;" d="M341.333,149.333c-5.891,0-10.667,4.776-10.667,10.667v256c0,5.891,4.776,10.667,10.667,10.667
	s10.667-4.776,10.667-10.667v-256C352,154.109,347.224,149.333,341.333,149.333z"/>
<path style="fill:#A78BFA;" d="M272,213.333c-5.891,0-10.667,4.776-10.667,10.667v192c0,5.891,4.776,10.667,10.667,10.667
	s10.667-4.776,10.667-10.667v-192C282.667,218.109,277.891,213.333,272,213.333z"/>
<path style="fill:#C4B5FD;" d="M202.667,277.333c-5.891,0-10.667,4.776-10.667,10.667v128c0,5.891,4.776,10.667,10.667,10.667
	s10.667-4.776,10.667-10.667v-128C213.333,282.109,208.558,277.333,202.667,277.333z"/>
<path style="fill:#DDD6FE;" d="M133.333,341.333c-5.891,0-10.667,4.776-10.667,10.667v64c0,5.891,4.776,10.667,10.667,10.667
	s10.667-4.776,10.667-10.667v-64C144,346.109,139.224,341.333,133.333,341.333z"/>
<path style="fill:#1E1E1E;" d="M469.333,42.667H42.667C19.135,42.667,0,61.802,0,85.333v341.333c0,23.531,19.135,42.667,42.667,42.667
	h426.667c23.531,0,42.667-19.135,42.667-42.667V85.333C512,61.802,492.865,42.667,469.333,42.667z M490.667,426.667
	c0,11.76-9.573,21.333-21.333,21.333H42.667c-11.76,0-21.333-9.573-21.333-21.333V85.333c0-11.76,9.573-21.333,21.333-21.333h426.667
	c11.76,0,21.333,9.573,21.333,21.333V426.667z"/>
</svg>
